<svg width="140" height="43" viewBox="0 0 140 43" fill="none" xmlns="http://www.w3.org/2000/svg">
<path d="M0.155518 26.0089L9.36441 0H19.1022L28.3111 26.0089H20.6577L19.0711 21.1556H9.20885L7.62218 26.0089H0.155518ZM11.1377 15.3378H17.1111L15.8666 11.5422L14.1244 5.00889L12.3822 11.5422L11.1377 15.3378Z" fill="#1B756B"/>
<path d="M31.2976 26.0089V0H42.2798C48.8754 0 53.8221 2.70667 53.8221 9.67556C53.8221 16.6756 48.9687 19.3822 42.2798 19.3822H38.2665V26.0089H31.2976ZM38.2976 6.22222V13.16H42.3732C45.0798 13.16 46.4487 11.9156 46.4487 9.67556C46.4487 7.37333 45.0798 6.22222 42.3732 6.22222H38.2976Z" fill="#1B756B"/>
<path d="M54.4133 26.0089L63.6222 0H73.36L82.5689 26.0089H74.9155L73.3289 21.1556H63.4667L61.88 26.0089H54.4133ZM65.3955 15.3378H71.3689L70.1244 11.5422L68.3822 5.00889L66.64 11.5422L65.3955 15.3378Z" fill="#1B756B"/>
<path d="M84.8708 26.0089L94.0798 0H103.818L113.026 26.0089H105.373L103.786 21.1556H93.9242L92.3375 26.0089H84.8708ZM95.8842 15.3378H101.858L100.613 11.5422L98.8709 5.00889L97.1286 11.5422L95.8842 15.3378Z" fill="#1B756B"/>
<path d="M116.044 26.0089V0H128.489C134.556 0 138.911 2.39556 138.911 8.15111C138.911 13.16 135.52 15.3689 131.102 15.7733C133.778 16.4267 134.96 18.1067 136.267 20.16L140 26.0089H132.036L127.711 19.0711C126.653 17.36 125.689 16.7067 123.542 16.7067H123.013V26.04H116.044V26.0089ZM123.013 6.22222V11.1067H128.551C130.542 11.1067 131.507 10.2667 131.507 8.64889C131.507 7.03111 130.542 6.19111 128.551 6.19111H123.013V6.22222Z" fill="#1B756B"/>
<path d="M133.778 29.9598H6.22217V42.4043H133.778V29.9598Z" fill="#1B756B"/>
<path d="M21.7706 38.1382C20.2996 38.1382 19.3066 37.0108 19.3066 35.5622C19.3066 34.1212 20.2996 32.9937 21.7706 32.9937C23.234 32.9937 24.2346 34.1212 24.2346 35.5622C24.2346 37.0108 23.234 38.1382 21.7706 38.1382ZM21.778 37.3318C22.8234 37.3318 23.3535 36.6001 23.3535 35.5622C23.3535 34.5318 22.8234 33.7926 21.778 33.7926C20.7327 33.7926 20.1951 34.5318 20.1951 35.5622C20.1951 36.6001 20.7327 37.3318 21.778 37.3318ZM25.8708 38.071H25.0271V33.0684H25.8111L27.8345 35.9804L28.3273 36.7644L28.2751 35.8161V33.0684H29.1188V38.071H28.3423L26.2665 35.1142L25.8111 34.4049L25.8708 35.3158V38.071ZM33.7725 38.071H30.2333V33.0684H33.7725V33.815H31.0771V35.1441H33.3096V35.8908H31.0771V37.3244H33.7725V38.071ZM36.9396 38.071H36.0958V33.0684H36.8798L38.9033 35.9804L39.3961 36.7644L39.3438 35.8161V33.0684H40.1876V38.071H39.411L37.3353 35.1142L36.8798 34.4049L36.9396 35.3158V38.071ZM41.407 38.071H40.5185L42.4748 33.0684H43.4454L45.4017 38.071H44.4758L43.998 36.8092H41.8849L41.407 38.071ZM42.6764 34.726L42.1612 36.0774H43.7217L43.214 34.726L42.9452 33.8225L42.6764 34.726ZM47.2191 38.071H46.3754V33.815H44.8447V33.0684H48.7573V33.815H47.2191V38.071ZM49.9406 38.071H49.0969V33.0684H49.9406V38.071ZM53.1976 38.1382C51.7267 38.1382 50.7336 37.0108 50.7336 35.5622C50.7336 34.1212 51.7267 32.9937 53.1976 32.9937C54.6611 32.9937 55.6616 34.1212 55.6616 35.5622C55.6616 37.0108 54.6611 38.1382 53.1976 38.1382ZM53.2051 37.3318C54.2504 37.3318 54.7806 36.6001 54.7806 35.5622C54.7806 34.5318 54.2504 33.7926 53.2051 33.7926C52.1598 33.7926 51.6222 34.5318 51.6222 35.5622C51.6222 36.6001 52.1598 37.3318 53.2051 37.3318ZM57.2979 38.071H56.4542V33.0684H57.2382L59.2616 35.9804L59.7544 36.7644L59.7022 35.8161V33.0684H60.5459V38.071H59.7694L57.6936 35.1142L57.2382 34.4049L57.2979 35.3158V38.071ZM62.3356 38.071H61.3798V37.0108H62.3356V38.071ZM67.0226 38.1382C65.5517 38.1382 64.5586 37.0108 64.5586 35.5622C64.5586 34.1212 65.5517 32.9937 67.0226 32.9937C68.4861 32.9937 69.4866 34.1212 69.4866 35.5622C69.4866 37.0108 68.4861 38.1382 67.0226 38.1382ZM67.0301 37.3318C68.0754 37.3318 68.6056 36.6001 68.6056 35.5622C68.6056 34.5318 68.0754 33.7926 67.0301 33.7926C65.9848 33.7926 65.4472 34.5318 65.4472 35.5622C65.4472 36.6001 65.9848 37.3318 67.0301 37.3318ZM71.1229 38.071H70.2792V33.0684H71.0632L73.0866 35.9804L73.5794 36.7644L73.5272 35.8161V33.0684H74.3709V38.071H73.5944L71.5186 35.1142L71.0632 34.4049L71.1229 35.3158V38.071ZM79.0246 38.071H75.4854V33.0684H79.0246V33.815H76.3291V35.1441H78.5617V35.8908H76.3291V37.3244H79.0246V38.071ZM83.3938 38.1457C82.438 38.1457 81.5644 37.8022 81.1762 36.9585L81.7735 36.3537C82.0423 37.0854 82.7964 37.3692 83.4087 37.3692C83.909 37.3692 84.3122 37.19 84.3122 36.7345C84.3122 36.2492 83.909 36.1148 83.2594 35.9729L82.789 35.8684C82.0796 35.719 81.3255 35.398 81.3255 34.4497C81.3255 33.5089 82.1394 33.0012 83.0802 33.0012C83.9986 33.0012 84.7303 33.382 85.0887 34.0689L84.454 34.6737C84.1778 34.054 83.6402 33.7852 83.0279 33.7852C82.55 33.7852 82.2066 34.0092 82.2066 34.39C82.2066 34.8305 82.55 34.9873 83.0951 35.1217L83.6551 35.2561C84.454 35.4502 85.1708 35.7638 85.1708 36.7196C85.1708 37.623 84.4092 38.1457 83.3938 38.1457ZM87.5858 38.071H86.7421V33.815H85.2114V33.0684H89.1239V33.815H87.5858V38.071ZM91.3899 38.1457C90.0534 38.1457 89.4038 37.4513 89.4038 35.9356V33.0684H90.2401V35.943C90.2401 36.9361 90.5761 37.3393 91.3974 37.3393C92.2337 37.3393 92.5547 36.9361 92.5547 35.943V33.0684H93.391V35.9356C93.391 37.4513 92.7563 38.1457 91.3899 38.1457ZM96.3401 38.071H94.451V33.0684H96.3401C97.8857 33.0684 98.722 34.0241 98.722 35.5697C98.722 37.1153 97.8932 38.071 96.3401 38.071ZM96.2356 33.815H95.2948V37.3244H96.243C97.2734 37.3244 97.8409 36.8241 97.8409 35.5697C97.8409 34.3153 97.2734 33.815 96.2356 33.815ZM103.051 38.071H99.5115V33.0684H103.051V33.815H100.355V35.1441H102.588V35.8908H100.355V37.3244H103.051V38.071ZM104.548 38.071H103.704V33.0684H104.488L106.512 35.9804L107.004 36.7644L106.952 35.8161V33.0684H107.796V38.071H107.019L104.944 35.1142L104.488 34.4049L104.548 35.3158V38.071ZM110.518 38.071H109.674V33.815H108.144V33.0684H112.056V33.815H110.518V38.071ZM115.07 38.071H114.226V33.0684H115.07V38.071ZM118.077 38.071H116.187V33.0684H118.077C119.622 33.0684 120.458 34.0241 120.458 35.5697C120.458 37.1153 119.63 38.071 118.077 38.071ZM117.972 33.815H117.031V37.3244H117.979C119.01 37.3244 119.577 36.8241 119.577 35.5697C119.577 34.3153 119.01 33.815 117.972 33.815Z" fill="white"/>
<path d="M139.378 42.4043L140 42.4043L140 29.9599L139.378 29.9599L139.378 42.4043Z" fill="#1B756B"/>
<path d="M135.644 42.4043L138.133 42.4043L138.133 29.9599L135.644 29.9599L135.644 42.4043Z" fill="#1B756B"/>
<path d="M0.622222 29.96H0V42.4044H0.622222V29.96Z" fill="#1B756B"/>
<path d="M4.35559 29.9598H1.8667V42.4043H4.35559V29.9598Z" fill="#1B756B"/>
</svg>
